# xmcd CD database file
#
# Track frame offsets:
#	150
#	24737
#	43322
#	66906
#	94530
#	128823
#	151178
#	182339
#	209221
#	232073
#	268503
#
# Disc length: 3910 seconds
#
# Revision: 0
# Processed by: cddbd v1.5.2PL0 Copyright (c) Steve Scherf et al.
# Submitted via: CDex 1.70beta2
#
DISCID=9b0f440b
DTITLE=Marcina Arnold - About time
DYEAR=1900
DGENRE=Jazz
TTITLE0=Forefathers
TTITLE1=With or without you
TTITLE2=Memory
TTITLE3=Neva do it
TTITLE4=Leicester Square
TTITLE5=Please release
TTITLE6=Love in this life
TTITLE7=Common rumour
TTITLE8=Blues for Jean Charles Menezes
TTITLE9=Read between the lines
TTITLE10=Memory(Tuggy remix)
EXTD=
EXTT0=
EXTT1=
EXTT2=
EXTT3=
EXTT4=
EXTT5=
EXTT6=
EXTT7=
EXTT8=
EXTT9=
EXTT10=
PLAYORDER=
